<svg id="Layer_1" data-name="Layer 1" xmlns="http://www.w3.org/2000/svg" viewBox="0 0 234 103"><defs><style>.cls-1{fill:#cccccb;}.cls-2{fill:none;}</style></defs><title>TPR_Logo_Reverse</title><path class="cls-1" d="M361,429.3a1.84,1.84,0,0,0-.62-.17l-.59,0h-1.62V432h1.63l.57,0a1.84,1.84,0,0,0,.62-.17,1.25,1.25,0,0,0,.5-.43,1.41,1.41,0,0,0,.2-.82,1.45,1.45,0,0,0-.2-.83A1.24,1.24,0,0,0,361,429.3Z" transform="translate(-189 -345)"/><path class="cls-1" d="M266.59,431.24a1.18,1.18,0,0,0,.42-.12.92.92,0,0,0,.35-.31,1,1,0,0,0,.15-.6,1.09,1.09,0,0,0-.14-.6,1,1,0,0,0-.33-.32,1.09,1.09,0,0,0-.4-.13l-.34,0h-2.26v2.12h2.17Z" transform="translate(-189 -345)"/><path class="cls-1" d="M308.83,429.3a1.82,1.82,0,0,0-.62-.17l-.59,0H306V432h1.63l.57,0a1.82,1.82,0,0,0,.62-.17,1.25,1.25,0,0,0,.5-.43,1.43,1.43,0,0,0,.2-.82,1.47,1.47,0,0,0-.2-.83A1.25,1.25,0,0,0,308.83,429.3Z" transform="translate(-189 -345)"/><path class="cls-1" d="M241.59,429.37a1.4,1.4,0,0,0-.55-.19l-.46-.05h-2.24v3.18h2.27l.33,0a1.25,1.25,0,0,0,.33-.06,1.22,1.22,0,0,0,.71-.55,1.82,1.82,0,0,0,.25-1,1.65,1.65,0,0,0-.19-.86A1.33,1.33,0,0,0,241.59,429.37Z" transform="translate(-189 -345)"/><path class="cls-1" d="M348.62,431a2.56,2.56,0,0,0-.59-1,2.76,2.76,0,0,0-.73-.53,2.16,2.16,0,0,0-.7-.21l-.45,0a2.77,2.77,0,0,0-1,.19,2.36,2.36,0,0,0-.89.62,3.08,3.08,0,0,0-.62,1.1,5.09,5.09,0,0,0-.23,1.64,4.26,4.26,0,0,0,.67,2.56,2.69,2.69,0,0,0,4,0,4.15,4.15,0,0,0,.75-2.69,7.81,7.81,0,0,0,0-.87A3.07,3.07,0,0,0,348.62,431Z" transform="translate(-189 -345)"/><path class="cls-1" d="M374.69,430.91a2.39,2.39,0,0,0-.47-.82,1.87,1.87,0,0,0-.58-.43,2.12,2.12,0,0,0-.64-.18l-.61-.05h-1.49v6.69h1.51c.28,0,.56-.06.84-.11a1.56,1.56,0,0,0,.82-.48,2.65,2.65,0,0,0,.7-1.17,5.27,5.27,0,0,0,.24-1.62,5.14,5.14,0,0,0-.09-1A5.4,5.4,0,0,0,374.69,430.91Z" transform="translate(-189 -345)"/><path class="cls-1" d="M419.94,345.51H192.09a3,3,0,0,0-2.95,2.95v96.11a3,3,0,0,0,2.95,3H419.94a3,3,0,0,0,2.95-3V348.46A3,3,0,0,0,419.94,345.51ZM275.81,408.36h7.53V365h-7.53V356.1h32c19.34,0,27.15,7.44,27.15,19.06,0,11.34-8.09,19.06-27.15,19.06h-6.88v14.13H309v8.93h-33.2Zm-67.4,21.22h-3.16V439h-4v-9.4h-3.16v-3.09h10.28ZM200.34,382V356.1h61.46V382h-8.65c-3-15.71-4.46-18.13-11.72-18.13h-1.58v44.54H249v8.93h-35.8v-8.93h9.11V363.82h-1.58c-7.25,0-8.74,2.42-11.72,18.13Zm20.71,57h-4v-4.8h-3.76V439h-4V426.51h4V431h3.76v-4.54h4Zm12.13,0h-10.4V426.51h9.87v2.74h-5.92v1.86h5.53v2.7h-5.53v2.47h6.45Zm12.72-6.81a3.79,3.79,0,0,1-1,1.58,3.42,3.42,0,0,1-.8.64,3.72,3.72,0,0,1-.86.34,4.71,4.71,0,0,1-.91.14l-1,0h-3V439h-4V426.49h7.15l1,.05a4.8,4.8,0,0,1,.92.16,4.33,4.33,0,0,1,.86.34,3.14,3.14,0,0,1,.79.61,4,4,0,0,1,.55.76,3.68,3.68,0,0,1,.32.77,4.33,4.33,0,0,1,.14.73c0,.23,0,.45,0,.65A6,6,0,0,1,245.91,432.17Zm12.5,1c0,.35,0,.73,0,1.14a7.17,7.17,0,0,1-.16,1.22,5,5,0,0,1-.43,1.2,4.27,4.27,0,0,1-.85,1.12,5.39,5.39,0,0,1-1.75,1.06,6.88,6.88,0,0,1-2.53.42,7.43,7.43,0,0,1-2.52-.41,5,5,0,0,1-1.83-1.08,3.65,3.65,0,0,1-.72-.93,4.35,4.35,0,0,1-.38-1,5.2,5.2,0,0,1-.15-1c0-.34,0-.67,0-1v-7.42h4v7.79a5,5,0,0,0,.06.79,1.23,1.23,0,0,0,.4.71,1.43,1.43,0,0,0,.58.35,2.22,2.22,0,0,0,.68.11,1.88,1.88,0,0,0,.77-.14,2,2,0,0,0,.49-.3,1.27,1.27,0,0,0,.42-.72,5,5,0,0,0,.06-.79v-7.79h4Zm13.24,3.65a2.87,2.87,0,0,1-.7,1.16,2.92,2.92,0,0,1-.76.56,3.77,3.77,0,0,1-.83.3,5.16,5.16,0,0,1-.83.12l-.78,0h-7.63V426.51h7.38l.69,0a5.47,5.47,0,0,1,.84.12,4.11,4.11,0,0,1,.86.3,3,3,0,0,1,.78.54,2.59,2.59,0,0,1,.64,1,3.36,3.36,0,0,1,.21,1.17,3,3,0,0,1-.26,1.25,3.12,3.12,0,0,1-.63.94,2.3,2.3,0,0,1-.5.39l-.56.28a6.91,6.91,0,0,1,.74.25,2.24,2.24,0,0,1,.72.51,2.34,2.34,0,0,1,.68,1.09,4.13,4.13,0,0,1,.15,1A4.47,4.47,0,0,1,271.65,436.8ZM282,439h-8.78V426.49h4v9.34H282Zm4.93,0h-4V426.51h4Zm13.47-2.33a4.78,4.78,0,0,1-.71.88,5.8,5.8,0,0,1-2.23,1.4,7.93,7.93,0,0,1-2.61.44,6.73,6.73,0,0,1-2.9-.58,5.92,5.92,0,0,1-2-1.5,6.08,6.08,0,0,1-1.17-2.1,7.59,7.59,0,0,1,0-4.85,6.51,6.51,0,0,1,1.24-2.17,6.2,6.2,0,0,1,2-1.54,6.34,6.34,0,0,1,2.79-.58,7.41,7.41,0,0,1,2.72.5,6.45,6.45,0,0,1,2.28,1.51,4.76,4.76,0,0,1,.63.75q.22.35.42.72l-3.3,1.64q-.12-.28-.31-.64a3.22,3.22,0,0,0-.48-.67,2.49,2.49,0,0,0-.73-.54,2.36,2.36,0,0,0-1.06-.22,2.13,2.13,0,0,0-1.07.24,3,3,0,0,0-.61.43,2.37,2.37,0,0,0-.54.75,4.28,4.28,0,0,0-.27.81,4.51,4.51,0,0,0-.11.73c0,.22,0,.4,0,.51a6.3,6.3,0,0,0,.14,1.34,3.65,3.65,0,0,0,.45,1.16,2.51,2.51,0,0,0,3.19.85,2.66,2.66,0,0,0,.75-.6,2.59,2.59,0,0,0,.43-.69q.14-.34.19-.5l3.36,1.62Q300.6,436.22,300.34,436.65Zm9.23,2.33-2.41-4.4H306V439h-4V426.49h6.22q.9,0,1.71.07a4.37,4.37,0,0,1,1.37.32,3.18,3.18,0,0,1,1,.69,3.61,3.61,0,0,1,.66.93,4.18,4.18,0,0,1,.35,1,4.82,4.82,0,0,1,.11,1c0,.12,0,.27,0,.46a3.94,3.94,0,0,1-.12.63,3.22,3.22,0,0,1-.28.71,2.92,2.92,0,0,1-.53.71,2.51,2.51,0,0,1-.77.59q-.4.19-.84.36l3,5Zm15.54,0h-10.4V426.51h9.87v2.74h-5.92v1.86h5.53v2.7h-5.53v2.47h6.45ZM338,436.65a4.69,4.69,0,0,1-.71.88,5.79,5.79,0,0,1-2.22,1.4,7.93,7.93,0,0,1-2.62.44,6.74,6.74,0,0,1-2.9-.58,5.92,5.92,0,0,1-2-1.5,6.12,6.12,0,0,1-1.17-2.1,7.62,7.62,0,0,1,0-4.85,6.53,6.53,0,0,1,1.24-2.17,6.21,6.21,0,0,1,2-1.54,6.34,6.34,0,0,1,2.79-.58,7.41,7.41,0,0,1,2.72.5,6.45,6.45,0,0,1,2.28,1.51,4.68,4.68,0,0,1,.63.75q.22.35.42.72l-3.3,1.64q-.12-.28-.31-.64a3.18,3.18,0,0,0-.48-.67,2.5,2.5,0,0,0-.73-.54,2.36,2.36,0,0,0-1.06-.22,2.13,2.13,0,0,0-1.07.24,3,3,0,0,0-.61.43,2.36,2.36,0,0,0-.54.75,4.34,4.34,0,0,0-.27.81,4.52,4.52,0,0,0-.11.73c0,.22,0,.4,0,.51a6.37,6.37,0,0,0,.14,1.34,3.66,3.66,0,0,0,.45,1.16,2.51,2.51,0,0,0,3.19.85,2.69,2.69,0,0,0,.75-.6,2.63,2.63,0,0,0,.43-.69c.09-.23.16-.4.19-.5l3.36,1.62Q338.29,436.22,338,436.65ZM352.44,435a6,6,0,0,1-3.27,3.76,7.21,7.21,0,0,1-3.12.61,7.13,7.13,0,0,1-3.19-.63,5.78,5.78,0,0,1-3.14-3.75,8.58,8.58,0,0,1-.32-2.24,7.85,7.85,0,0,1,.42-2.55,6.16,6.16,0,0,1,1.25-2.14,6,6,0,0,1,2.09-1.47,7.32,7.32,0,0,1,2.95-.55,7.18,7.18,0,0,1,3.13.61,5.93,5.93,0,0,1,2.06,1.56,6.08,6.08,0,0,1,1.14,2.12,7.8,7.8,0,0,1,.35,2.28A8.29,8.29,0,0,1,352.44,435Zm9.33,4-2.41-4.4h-1.16V439h-4V426.49h6.22c.6,0,1.17,0,1.7.07a4.35,4.35,0,0,1,1.37.32,3.16,3.16,0,0,1,1,.69,3.53,3.53,0,0,1,.66.93,4.15,4.15,0,0,1,.35,1,5,5,0,0,1,.11,1c0,.12,0,.27,0,.46a4.14,4.14,0,0,1-.11.63,3.34,3.34,0,0,1-.29.71,2.87,2.87,0,0,1-.53.71,2.51,2.51,0,0,1-.77.59c-.27.12-.55.25-.84.36l3,5Zm17-4.36a6.42,6.42,0,0,1-.62,1.73,5,5,0,0,1-1.09,1.39,4.55,4.55,0,0,1-1.6.91,6.12,6.12,0,0,1-1.59.29q-.83,0-1.75,0h-5.19V426.51h4.24l1.92,0a9.89,9.89,0,0,1,1.61.17,6,6,0,0,1,1.36.42,4.28,4.28,0,0,1,1.17.79,4.76,4.76,0,0,1,1.35,2.16,8.88,8.88,0,0,1,.38,2.59A9.51,9.51,0,0,1,378.77,434.62ZM383.4,439h-3.21v-3.32h3.21Zm13.27-2.33a4.77,4.77,0,0,1-.71.88,5.81,5.81,0,0,1-2.23,1.4,7.93,7.93,0,0,1-2.61.44,6.73,6.73,0,0,1-2.9-.58,5.94,5.94,0,0,1-2-1.5,6.08,6.08,0,0,1-1.17-2.1,7.58,7.58,0,0,1,0-4.85,6.48,6.48,0,0,1,1.23-2.17,6.21,6.21,0,0,1,2-1.54,6.34,6.34,0,0,1,2.79-.58,7.41,7.41,0,0,1,2.72.5,6.44,6.44,0,0,1,2.28,1.51,4.64,4.64,0,0,1,.63.75c.15.23.29.47.42.72l-3.3,1.64q-.12-.28-.31-.64a3.18,3.18,0,0,0-.48-.67,2.49,2.49,0,0,0-.73-.54,2.36,2.36,0,0,0-1.06-.22,2.13,2.13,0,0,0-1.07.24,3,3,0,0,0-.61.43,2.38,2.38,0,0,0-.54.75,4.27,4.27,0,0,0-.27.81,4.32,4.32,0,0,0-.11.73c0,.22,0,.4,0,.51a6.24,6.24,0,0,0,.14,1.34,3.63,3.63,0,0,0,.45,1.16,2.51,2.51,0,0,0,3.19.85,2.66,2.66,0,0,0,.75-.6,2.61,2.61,0,0,0,.43-.69c.09-.23.16-.4.2-.5l3.35,1.62C397,436.07,396.84,436.36,396.67,436.65ZM407.26,439l-.55-1.73h-4.34l-.55,1.73h-4.24l4.77-12.47h4.49L411.5,439Zm-8.91-20.29c-11.44,0-15.25-6.14-15.25-17v-1.39c0-7-1.67-9.49-7.72-9.49H369v17.57h8.09v8.93h-33.2v-8.93h7.53V365h-7.53V356.1H379.1c18.41,0,25.11,7.62,25.11,15.34s-4.93,13.67-20.36,15.16v.56c12.55.65,16.83,6,17.11,13.67l.09,2.32c.19,4.28,1,5.21,2.88,5.21,1.3,0,2.42-1.39,3.63-6.23l6,1.67C411.92,412.17,408.11,418.68,398.34,418.68Z" transform="translate(-189 -345)"/><path class="cls-1" d="M267.28,434.06a1.72,1.72,0,0,0-.48-.15l-.38,0H264v2.42h2.47a3.93,3.93,0,0,0,.53-.07.93.93,0,0,0,.5-.3,1.1,1.1,0,0,0,.32-.81,1.21,1.21,0,0,0-.17-.69A1,1,0,0,0,267.28,434.06Z" transform="translate(-189 -345)"/><polygon class="cls-1" points="214.21 89.46 216.9 89.46 215.57 85.06 214.21 89.46"/><path class="cls-1" d="M385.7,373.4c0-6.14-1.77-8.83-9.39-8.83H369v17.76h7.35C382.44,382.33,385.7,380.28,385.7,373.4Z" transform="translate(-189 -345)"/><path class="cls-1" d="M306.41,364.57h-5.49v20.92h5.49c7.62,0,10.14-3,10.14-10.51S314.22,364.57,306.41,364.57Z" transform="translate(-189 -345)"/><rect id="_Slice_" data-name="&lt;Slice&gt;" class="cls-2" width="234" height="103"/></svg>